<?xml version="1.0" encoding="UTF-8"?>
<svg width="100" height="100" viewBox="0 0 100 100" xmlns="http://www.w3.org/2000/svg">
  <g fill="#3498db">
    <path d="M70,25H40c-2.8,0-5,2.2-5,5v40c0,2.8,2.2,5,5,5h30c2.8,0,5-2.2,5-5V30C75,27.2,72.8,25,70,25z M69,69H41V31h28V69z"/>
    <path d="M60,35H50c-1.1,0-2,0.9-2,2s0.9,2,2,2h10c1.1,0,2-0.9,2-2S61.1,35,60,35z"/>
    <path d="M60,45H50c-1.1,0-2,0.9-2,2s0.9,2,2,2h10c1.1,0,2-0.9,2-2S61.1,45,60,45z"/>
    <path d="M60,55H50c-1.1,0-2,0.9-2,2s0.9,2,2,2h10c1.1,0,2-0.9,2-2S61.1,55,60,55z"/>
    <path d="M35,30c0-2.8-2.2-5-5-5s-5,2.2-5,5v40c0,2.8,2.2,5,5,5s5-2.2,5-5V30z"/>
  </g>
</svg>
