<?xml version="1.0" encoding="UTF-8"?>
<svg width="100" height="100" viewBox="0 0 100 100" xmlns="http://www.w3.org/2000/svg">
  <g fill="#e74c3c">
    <path d="M70.3,22.3c-3.8-3.8-9.8-3.8-13.6,0L50,29l-6.7-6.7c-3.8-3.8-9.8-3.8-13.6,0s-3.8,9.8,0,13.6L36.4,42l-6.7,6.7
      c-3.8,3.8-3.8,9.8,0,13.6s9.8,3.8,13.6,0L50,55.6l6.7,6.7c3.8,3.8,9.8,3.8,13.6,0s3.8-9.8,0-13.6L63.6,42l6.7-6.7
      C74.1,32.1,74.1,26.1,70.3,22.3z"/>
    <path d="M50,80c-16.5,0-30-13.5-30-30s13.5-30,30-30s30,13.5,30,30S66.5,80,50,80z M50,26c-13.2,0-24,10.8-24,24
      s10.8,24,24,24s24-10.8,24-24S63.2,26,50,26z"/>
  </g>
</svg>
