<?xml version="1.0" encoding="UTF-8"?>
<svg width="100" height="100" viewBox="0 0 100 100" xmlns="http://www.w3.org/2000/svg">
  <g fill="#2ecc71">
    <path d="M65,40c-5.5,0-10,4.5-10,10c0,1.2,0.2,2.4,0.6,3.5l-5.6,5.6l-5.6-5.6C44.8,52.4,45,51.2,45,50c0-5.5-4.5-10-10-10
      s-10,4.5-10,10s4.5,10,10,10c1.2,0,2.4-0.2,3.5-0.6l15,15c0.8,0.8,1.8,1.2,2.8,1.2s2.1-0.4,2.8-1.2l15-15c1.1,0.4,2.3,0.6,3.5,0.6
      c5.5,0,10-4.5,10-10S70.5,40,65,40z M35,56c-3.3,0-6-2.7-6-6s2.7-6,6-6s6,2.7,6,6S38.3,56,35,56z M65,56c-3.3,0-6-2.7-6-6
      s2.7-6,6-6s6,2.7,6,6S68.3,56,65,56z"/>
    <path d="M65,36c1.1,0,2-0.9,2-2V24c0-1.1-0.9-2-2-2s-2,0.9-2,2v10C63,35.1,63.9,36,65,36z"/>
    <path d="M35,36c1.1,0,2-0.9,2-2V24c0-1.1-0.9-2-2-2s-2,0.9-2,2v10C33,35.1,33.9,36,35,36z"/>
  </g>
</svg>
