<?xml version="1.0" encoding="UTF-8"?>
<svg width="100" height="100" viewBox="0 0 100 100" xmlns="http://www.w3.org/2000/svg">
  <circle cx="50" cy="50" r="45" fill="#6c5ce7" />
  <g transform="translate(20, 20) scale(0.6)">
    <path fill="#ffffff" d="M70.3,22.3c-3.8-3.8-9.8-3.8-13.6,0L50,29l-6.7-6.7c-3.8-3.8-9.8-3.8-13.6,0s-3.8,9.8,0,13.6L36.4,42l-6.7,6.7
      c-3.8,3.8-3.8,9.8,0,13.6s9.8,3.8,13.6,0L50,55.6l6.7,6.7c3.8,3.8,9.8,3.8,13.6,0s3.8-9.8,0-13.6L63.6,42l6.7-6.7
      C74.1,32.1,74.1,26.1,70.3,22.3z"/>
  </g>
</svg>
